<?xml version="1.0" encoding="UTF-8"?><svg xmlns="http://www.w3.org/2000/svg" viewBox="0 0 378 281.56"><defs><style>.cls-1{fill:#73c38d;}.cls-2,.cls-3,.cls-4,.cls-5,.cls-6,.cls-7{stroke:#cfd9e2;stroke-miterlimit:10;stroke-width:6px;}.cls-2,.cls-4,.cls-5,.cls-6{fill:none;}.cls-8{fill:#fff;}.cls-3{fill:url(#linear-gradient);}.cls-9{fill:#f6e27f;}.cls-4{stroke-dasharray:0 0 9.88 9.88;}.cls-5{stroke-dasharray:0 0 10.06 10.06;}.cls-10{fill:#f28080;}.cls-6{stroke-dasharray:0 0 10.06 10.06;}.cls-7{fill:url(#linear-gradient-2);}.cls-11{fill:#ccd5df;}.cls-12{fill:#eff2f4;}</style><linearGradient id="linear-gradient" x1="207" y1="278.56" x2="207" y2="86.6" gradientTransform="matrix(1, 0, 0, 1, 0, 0)" gradientUnits="userSpaceOnUse"><stop offset="0" stop-color="#3e84ff"/><stop offset="1" stop-color="#6fafff"/></linearGradient><linearGradient id="linear-gradient-2" x1="207" y1="38.47" x2="207" y2="86.6" gradientTransform="matrix(1, 0, 0, 1, 0, 0)" gradientUnits="userSpaceOnUse"><stop offset="0" stop-color="#3e84ff"/><stop offset="1" stop-color="#5ba7ff"/></linearGradient></defs><g id="Layer_4"><path class="cls-3" d="M39,86.6H375v179.91c0,6.65-5.4,12.05-12.05,12.05H51.05c-6.65,0-12.05-5.4-12.05-12.05V86.6h0Z"/><path class="cls-7" d="M51,38.47H363c6.62,0,12,5.38,12,12v36.13H39V50.47c0-6.62,5.38-12,12-12Z"/><g><line class="cls-2" x1="371.22" y1="275.27" x2="366.87" y2="272.8"/><line class="cls-5" x1="358.13" y1="267.83" x2="47.72" y2="91.55"/><line class="cls-2" x1="43.35" y1="89.07" x2="39" y2="86.6"/></g><g><line class="cls-2" x1="42.57" y1="275.07" x2="46.92" y2="272.61"/><line class="cls-6" x1="55.67" y1="267.65" x2="366.28" y2="91.55"/><line class="cls-2" x1="370.65" y1="89.07" x2="375" y2="86.6"/></g><line class="cls-2" x1="39" y1="252.87" x2="375" y2="252.87"/><line class="cls-2" x1="39" y1="111.06" x2="375" y2="111.06"/><g><line class="cls-2" x1="39" y1="64.02" x2="44" y2="64.02"/><line class="cls-4" x1="53.88" y1="64.02" x2="365.06" y2="64.02"/><line class="cls-2" x1="370" y1="64.02" x2="375" y2="64.02"/></g><g><line class="cls-2" x1="39" y1="180.93" x2="44" y2="180.93"/><line class="cls-4" x1="53.88" y1="180.93" x2="365.06" y2="180.93"/><line class="cls-2" x1="370" y1="180.93" x2="375" y2="180.93"/></g><line class="cls-2" x1="82.35" y1="278.56" x2="82.35" y2="86.6"/><line class="cls-2" x1="332.16" y1="278.56" x2="332.16" y2="86.6"/></g><g id="Layer_2"><path class="cls-8" d="M0,38.47H336V228.05c0,6.65-5.4,12.05-12.05,12.05H12.05c-6.65,0-12.05-5.4-12.05-12.05V38.47H0Z"/><path class="cls-11" d="M12,0H324c6.62,0,12,5.38,12,12v26.47H0V12C0,5.38,5.38,0,12,0Z"/><circle class="cls-10" cx="21" cy="20.1" r="9"/><circle class="cls-9" cx="44.68" cy="20.1" r="9"/><circle class="cls-1" cx="68.35" cy="20.1" r="9"/><rect class="cls-12" x="18.32" y="70.57" width="304.52" height="34.49" rx="7.44" ry="7.44"/><rect class="cls-12" x="18.32" y="120.96" width="304.52" height="34.49" rx="7.44" ry="7.44"/><rect class="cls-12" x="18.32" y="171.35" width="304.52" height="34.49" rx="7.44" ry="7.44"/></g></svg>