<?xml version="1.0" encoding="utf-8"?>
<!-- Generator: Adobe Illustrator 26.3.1, SVG Export Plug-In . SVG Version: 6.00 Build 0)  -->
<svg version="1.1" id="Layer_1" xmlns="http://www.w3.org/2000/svg" x="0px" y="0px"
	 viewBox="0 0 290.5 75" style="enable-background:new 0 0 290.5 75;" xml:space="preserve">
<style type="text/css">
	.st0{enable-background:new    ;}
	.st1{fill:none;stroke:#000000;stroke-width:6;stroke-miterlimit:10;}
</style>
<g class="st0">
	<path d="M123.6,23.2v32.7h-8.3v-4.1c-1.1,1.4-2.4,2.5-4.2,3.3c-1.7,0.8-3.6,1.2-5.6,1.2c-2.6,0-4.8-0.5-6.8-1.6
		c-2-1.1-3.5-2.7-4.6-4.8c-1.1-2.1-1.7-4.6-1.7-7.5V23.2h8.3v18c0,2.6,0.6,4.6,1.9,6s3.1,2.1,5.3,2.1c2.3,0,4.1-0.7,5.4-2.1
		c1.3-1.4,1.9-3.4,1.9-6v-18H123.6z"/>
	<path d="M159.3,26.4c2.4,2.5,3.6,5.9,3.6,10.3v19.2h-8.3V37.8c0-2.6-0.6-4.6-1.9-6c-1.3-1.4-3.1-2.1-5.3-2.1
		c-2.3,0-4.1,0.7-5.4,2.1c-1.3,1.4-2,3.4-2,6v18.1h-8.3V23.2h8.3v4.1c1.1-1.4,2.5-2.5,4.2-3.3c1.7-0.8,3.6-1.2,5.6-1.2
		C153.7,22.7,156.9,23.9,159.3,26.4z"/>
	<path d="M176,54.9c-2.1-1-3.8-2.3-5-3.9s-1.9-3.5-2-5.5h8.3c0.2,1.3,0.8,2.3,1.9,3.1s2.4,1.2,4,1.2c1.6,0,2.8-0.3,3.7-0.9
		c0.9-0.6,1.3-1.4,1.3-2.4c0-1.1-0.5-1.9-1.6-2.4c-1.1-0.5-2.8-1.1-5.2-1.7c-2.4-0.6-4.4-1.2-6-1.8c-1.6-0.6-2.9-1.6-4-2.9
		s-1.7-3-1.7-5.3c0-1.8,0.5-3.5,1.6-5c1-1.5,2.5-2.7,4.5-3.5c1.9-0.9,4.2-1.3,6.9-1.3c3.9,0,7,1,9.3,2.9c2.3,1.9,3.6,4.6,3.8,7.9
		h-7.9c-0.1-1.3-0.7-2.3-1.6-3.1s-2.3-1.2-3.9-1.2c-1.5,0-2.6,0.3-3.5,0.8c-0.8,0.6-1.2,1.3-1.2,2.3c0,1.1,0.6,1.9,1.7,2.5
		s2.8,1.2,5.1,1.7c2.4,0.6,4.3,1.2,5.8,1.8c1.5,0.6,2.9,1.6,4,2.9c1.1,1.3,1.7,3.1,1.7,5.2c0,1.9-0.5,3.6-1.6,5.1
		c-1,1.5-2.5,2.7-4.5,3.5c-1.9,0.8-4.2,1.3-6.8,1.3C180.6,56.4,178.2,55.9,176,54.9z"/>
	<path d="M233,42h-23.9c0.2,2.4,1,4.2,2.5,5.5c1.5,1.3,3.2,2,5.4,2c3.1,0,5.3-1.3,6.5-4h8.9c-0.9,3.1-2.8,5.7-5.4,7.8
		c-2.7,2-6,3-9.9,3c-3.1,0-6-0.7-8.5-2.1c-2.5-1.4-4.4-3.4-5.8-5.9c-1.4-2.6-2.1-5.5-2.1-8.8c0-3.4,0.7-6.4,2.1-8.9
		c1.4-2.6,3.3-4.5,5.8-5.9c2.5-1.4,5.3-2.1,8.6-2.1c3.1,0,5.9,0.7,8.3,2c2.5,1.3,4.4,3.2,5.7,5.7c1.4,2.5,2,5.3,2,8.5
		C233.3,40,233.2,41,233,42z M224.7,36.4c0-2.1-0.8-3.8-2.3-5.1c-1.5-1.3-3.3-1.9-5.5-1.9c-2,0-3.8,0.6-5.2,1.9
		c-1.4,1.2-2.3,3-2.6,5.2H224.7z"/>
	<path d="M239.1,30.6c1.3-2.6,3.1-4.5,5.4-5.9c2.3-1.4,4.8-2.1,7.6-2.1c2.4,0,4.6,0.5,6.4,1.5c1.8,1,3.3,2.2,4.4,3.7v-4.7h8.3v32.7
		h-8.3v-4.8c-1.1,1.5-2.5,2.8-4.4,3.8s-4,1.5-6.5,1.5c-2.8,0-5.3-0.7-7.5-2.1s-4.1-3.4-5.4-6s-2-5.5-2-8.9
		C237.2,36.1,237.8,33.1,239.1,30.6z M261.7,34.3c-0.8-1.4-1.8-2.5-3.2-3.3c-1.3-0.8-2.8-1.2-4.3-1.2s-3,0.4-4.2,1.1
		s-2.4,1.8-3.2,3.3c-0.8,1.4-1.2,3.1-1.2,5.1s0.4,3.7,1.2,5.2c0.8,1.5,1.9,2.6,3.2,3.4c1.3,0.8,2.7,1.2,4.2,1.2c1.5,0,3-0.4,4.3-1.2
		c1.3-0.8,2.4-1.9,3.2-3.3c0.8-1.4,1.2-3.2,1.2-5.2S262.5,35.8,261.7,34.3z"/>
</g>
<g class="st0">
	<path d="M278.4,10.2v1.4h-2.2v7h-1.7v-7h-2.2v-1.4H278.4z"/>
	<path d="M288.7,10.2v8.4h-1.7v-5.4l-2.2,5.4h-1.3l-2.3-5.4v5.4h-1.7v-8.4h1.9l2.7,6.2l2.7-6.2H288.7z"/>
</g>
<g>
	<path class="st1" d="M0.9,14.1c7.1,0,7.1,8,14.2,8s7.1-8,14.2-8s7.1,8,14.2,8s7.1-8,14.2-8s7.1,8,14.2,8"/>
</g>
<g>
	<path class="st1" d="M0.9,33.5c7.1,0,7.1,8,14.2,8s7.1-8,14.2-8s7.1,8,14.2,8s7.1-8,14.2-8s7.1,8,14.2,8"/>
</g>
<g>
	<path class="st1" d="M0.9,52.8c7.1,0,7.1,8,14.2,8s7.1-8,14.2-8s7.1,8,14.2,8s7.1-8,14.2-8s7.1,8,14.2,8"/>
</g>
</svg>
