<?xml version="1.0" encoding="utf-8"?>
<!-- Generator: Adobe Illustrator 26.3.1, SVG Export Plug-In . SVG Version: 6.00 Build 0)  -->
<svg version="1.1" id="Layer_1" xmlns="http://www.w3.org/2000/svg" x="0px" y="0px"
	 viewBox="0 0 75 75" style="enable-background:new 0 0 75 75;" xml:space="preserve">
<style type="text/css">
	.st0{fill:none;stroke:#000000;stroke-width:6;stroke-miterlimit:10;}
</style>
<g>
	<path class="st0" d="M1.96,14.15c7.1,0,7.1,8,14.21,8s7.11-8,14.21-8s7.1,8,14.21,8s7.11-8,14.22-8s7.11,8,14.22,8"/>
</g>
<g>
	<path class="st0" d="M1.96,33.5c7.1,0,7.1,8,14.21,8s7.11-8,14.21-8s7.1,8,14.21,8s7.11-8,14.22-8s7.11,8,14.22,8"/>
</g>
<g>
	<path class="st0" d="M1.96,52.85c7.1,0,7.1,8,14.21,8s7.11-8,14.21-8s7.1,8,14.21,8s7.11-8,14.22-8s7.11,8,14.22,8"/>
</g>
</svg>
