<?xml version="1.0" encoding="utf-8"?>
<!-- Generator: Adobe Illustrator 26.4.1, SVG Export Plug-In . SVG Version: 6.00 Build 0)  -->
<svg version="1.1" id="Layer_1" xmlns="http://www.w3.org/2000/svg" xmlns:xlink="http://www.w3.org/1999/xlink" x="0px" y="0px"
	 viewBox="0 0 200 75" style="enable-background:new 0 0 200 75;" xml:space="preserve">
<style type="text/css">
	.st0{enable-background:new    ;}
	.st1{fill:#FFFFFF;}
</style>
<g class="st0">
	<path class="st1" d="M33.3,23.2v32.7H25v-4.1c-1.1,1.4-2.4,2.5-4.2,3.3c-1.7,0.8-3.6,1.2-5.6,1.2c-2.6,0-4.8-0.5-6.8-1.6
		S4.9,52,3.8,49.9s-1.7-4.6-1.7-7.5V23.2h8.3v18c0,2.6,0.6,4.6,1.9,6s3.1,2.1,5.3,2.1c2.3,0,4.1-0.7,5.4-2.1s1.9-3.4,1.9-6v-18H33.3
		z"/>
	<path class="st1" d="M69,26.4c2.4,2.5,3.6,5.9,3.6,10.3v19.2h-8.3V37.8c0-2.6-0.6-4.6-1.9-6c-1.3-1.4-3.1-2.1-5.3-2.1
		c-2.3,0-4.1,0.7-5.4,2.1c-1.3,1.4-2,3.4-2,6v18.1h-8.3V23.2h8.3v4.1c1.1-1.4,2.5-2.5,4.2-3.3s3.6-1.2,5.6-1.2
		C63.5,22.7,66.6,23.9,69,26.4z"/>
	<path class="st1" d="M85.8,54.9c-2.1-1-3.8-2.3-5-3.9c-1.2-1.7-1.9-3.5-2-5.5H87c0.2,1.3,0.8,2.3,1.9,3.1s2.4,1.2,4,1.2
		s2.8-0.3,3.7-0.9c0.9-0.6,1.3-1.4,1.3-2.4c0-1.1-0.5-1.9-1.6-2.4s-2.8-1.1-5.2-1.7c-2.4-0.6-4.4-1.2-6-1.8s-2.9-1.6-4-2.9
		s-1.7-3-1.7-5.3c0-1.8,0.5-3.5,1.6-5c1-1.5,2.5-2.7,4.5-3.5s4.2-1.3,6.9-1.3c3.9,0,7,1,9.3,2.9s3.6,4.6,3.8,7.9h-7.9
		c-0.1-1.3-0.7-2.3-1.6-3.1s-2.3-1.2-3.9-1.2c-1.5,0-2.6,0.3-3.5,0.8s-1.2,1.3-1.2,2.3c0,1.1,0.6,1.9,1.7,2.5s2.8,1.2,5.1,1.7
		c2.4,0.6,4.3,1.2,5.8,1.8s2.9,1.6,4,2.9c1.1,1.3,1.7,3.1,1.7,5.2c0,1.9-0.5,3.6-1.6,5.1c-1,1.5-2.5,2.7-4.5,3.5
		c-1.9,0.8-4.2,1.3-6.8,1.3C90.3,56.4,87.9,55.9,85.8,54.9z"/>
	<path class="st1" d="M142.8,42h-23.9c0.2,2.4,1,4.2,2.5,5.5s3.2,2,5.4,2c3.1,0,5.3-1.3,6.5-4h8.9c-0.9,3.1-2.8,5.7-5.4,7.8
		c-2.7,2-6,3-9.9,3c-3.1,0-6-0.7-8.5-2.1c-2.5-1.4-4.4-3.4-5.8-5.9c-1.4-2.6-2.1-5.5-2.1-8.8c0-3.4,0.7-6.4,2.1-8.9
		c1.4-2.6,3.3-4.5,5.8-5.9s5.3-2.1,8.6-2.1c3.1,0,5.9,0.7,8.3,2c2.5,1.3,4.4,3.2,5.7,5.7c1.4,2.5,2,5.3,2,8.5
		C143,40,142.9,41,142.8,42z M134.5,36.4c0-2.1-0.8-3.8-2.3-5.1c-1.5-1.3-3.3-1.9-5.5-1.9c-2,0-3.8,0.6-5.2,1.9
		c-1.4,1.2-2.3,3-2.6,5.2L134.5,36.4L134.5,36.4z"/>
	<path class="st1" d="M148.9,30.6c1.3-2.6,3.1-4.5,5.4-5.9c2.3-1.4,4.8-2.1,7.6-2.1c2.4,0,4.6,0.5,6.4,1.5c1.8,1,3.3,2.2,4.4,3.7
		v-4.7h8.3v32.7h-8.3V51c-1.1,1.5-2.5,2.8-4.4,3.8s-4,1.5-6.5,1.5c-2.8,0-5.3-0.7-7.5-2.1c-2.3-1.4-4.1-3.4-5.4-6
		c-1.3-2.6-2-5.5-2-8.9C146.9,36.1,147.6,33.1,148.9,30.6z M171.5,34.3c-0.8-1.4-1.8-2.5-3.2-3.3c-1.3-0.8-2.8-1.2-4.3-1.2
		s-3,0.4-4.2,1.1s-2.4,1.8-3.2,3.3c-0.8,1.4-1.2,3.1-1.2,5.1s0.4,3.7,1.2,5.2s1.9,2.6,3.2,3.4c1.3,0.8,2.7,1.2,4.2,1.2
		s3-0.4,4.3-1.2s2.4-1.9,3.2-3.3c0.8-1.4,1.2-3.2,1.2-5.2S172.2,35.8,171.5,34.3z"/>
</g>
<g class="st0">
	<path class="st1" d="M188.1,10.2v1.4h-2.2v7h-1.7v-7H182v-1.4C182,10.2,188.1,10.2,188.1,10.2z"/>
	<path class="st1" d="M198.5,10.2v8.4h-1.7v-5.4l-2.2,5.4h-1.3l-2.3-5.4v5.4h-1.7v-8.4h1.9l2.7,6.2l2.7-6.2
		C196.6,10.2,198.5,10.2,198.5,10.2z"/>
</g>
</svg>
