<?xml version="1.0" encoding="utf-8"?>
<!-- Generator: Adobe Illustrator 26.4.1, SVG Export Plug-In . SVG Version: 6.00 Build 0)  -->
<svg version="1.1" id="Layer_1" xmlns="http://www.w3.org/2000/svg" xmlns:xlink="http://www.w3.org/1999/xlink" x="0px" y="0px"
	 viewBox="0 0 75 75" style="enable-background:new 0 0 75 75;" xml:space="preserve">
<style type="text/css">
	.st0{fill:none;stroke:#FFFFFF;stroke-width:6;stroke-miterlimit:10;}
</style>
<g>
	<path class="st0" d="M2,14.1c7.1,0,7.1,8,14.2,8s7.1-8,14.2-8s7.1,8,14.2,8s7.1-8,14.2-8s7.1,8,14.2,8"/>
</g>
<g>
	<path class="st0" d="M2,33.5c7.1,0,7.1,8,14.2,8s7.1-8,14.2-8s7.1,8,14.2,8s7.1-8,14.2-8s7.1,8,14.2,8"/>
</g>
<g>
	<path class="st0" d="M2,52.8c7.1,0,7.1,8,14.2,8s7.1-8,14.2-8s7.1,8,14.2,8s7.1-8,14.2-8s7.1,8,14.2,8"/>
</g>
</svg>
